<svg width="21" height="15" viewBox="0 0 21 15" fill="none" xmlns="http://www.w3.org/2000/svg">
<path fill-rule="evenodd" clip-rule="evenodd" d="M0 0.457883C0 0.205001 0.186727 0 0.417066 0H2.08533C2.2686 0 2.43039 0.131348 2.48409 0.323722L3.16059 2.7473H20.0192C20.1565 2.7473 20.2851 2.82153 20.3629 2.94578C20.4407 3.07003 20.4578 3.22837 20.4086 3.36916L17.4891 11.7255C17.4273 11.9025 17.2724 12.0194 17.0997 12.0194H5.46308L4.89986 13.5075H16.1613C16.3917 13.5075 16.5784 13.7125 16.5784 13.9654C16.5784 14.2183 16.3917 14.4233 16.1613 14.4233H4.27493C4.13555 14.4233 4.00539 14.3469 3.92802 14.2196C3.85065 14.0923 3.83631 13.931 3.88979 13.7897L4.74198 11.5381L1.77693 0.915765H0.417066C0.186727 0.915765 0 0.710764 0 0.457883ZM5.49314 11.1037H16.813L19.4125 3.66306H3.41622L5.49314 11.1037Z" fill="white"/>
</svg>
