<svg width="15" height="26" viewBox="0 0 15 26" fill="none" xmlns="http://www.w3.org/2000/svg">
<path fill-rule="evenodd" clip-rule="evenodd" d="M13.8529 1.27543C13.9402 1.36251 14.0095 1.46597 14.0568 1.57986C14.104 1.69376 14.1284 1.81586 14.1284 1.93918C14.1284 2.06249 14.104 2.18459 14.0568 2.29849C14.0095 2.41239 13.9402 2.51584 13.8529 2.60293L3.2648 13.1892L13.8529 23.7754C14.029 23.9515 14.1279 24.1902 14.1279 24.4392C14.1279 24.6881 14.029 24.9269 13.8529 25.1029C13.6769 25.279 13.4381 25.3779 13.1892 25.3779C12.9402 25.3779 12.7015 25.279 12.5254 25.1029L1.27543 13.8529C1.18812 13.7658 1.11885 13.6624 1.07159 13.5485C1.02433 13.4346 1 13.3125 1 13.1892C1 13.0659 1.02433 12.9438 1.07159 12.8299C1.11885 12.716 1.18812 12.6125 1.27543 12.5254L12.5254 1.27543C12.6125 1.18812 12.716 1.11885 12.8299 1.07159C12.9438 1.02433 13.0659 1 13.1892 1C13.3125 1 13.4346 1.02433 13.5485 1.07159C13.6624 1.11885 13.7658 1.18812 13.8529 1.27543Z" fill="#333333" fill-opacity="0.5"/>
<path d="M14.0295 1.09843C14.1401 1.20874 14.2278 1.33978 14.2877 1.48405C14.3475 1.62832 14.3784 1.78298 14.3784 1.93918C14.3784 2.09537 14.3475 2.25004 14.2877 2.39431C14.2278 2.53848 14.1402 2.66945 14.0297 2.77972L14.0295 1.09843ZM14.0295 1.09843L13.8529 1.27543M14.0295 1.09843L13.8529 1.27543M13.8529 1.27543L14.0299 1.09887C13.9196 0.988284 13.7886 0.900545 13.6443 0.840681C13.5 0.780815 13.3454 0.75 13.1892 0.75C13.033 0.75 12.8783 0.780815 12.734 0.840681C12.5898 0.900519 12.4589 0.988206 12.3486 1.09872C12.3485 1.09877 12.3485 1.09882 12.3484 1.09887L1.09887 12.3484C1.09882 12.3485 1.09878 12.3485 1.09873 12.3486L13.8529 1.27543ZM3.61838 13.1892L14.0295 2.77993L1.27543 13.8529L1.09865 14.0297L1.09873 14.0298C1.09877 14.0298 1.09882 14.0299 1.09887 14.0299L12.3486 25.2797C12.5716 25.5026 12.8739 25.6279 13.1892 25.6279C13.5044 25.6279 13.8068 25.5026 14.0297 25.2797C14.2526 25.0568 14.3779 24.7544 14.3779 24.4392C14.3779 24.1239 14.2526 23.8216 14.0297 23.5986L14.0297 23.5986L3.61838 13.1892Z" stroke="#333333" stroke-opacity="0.5" stroke-width="0.5"/>
</svg>
