<svg width="18" height="18" viewBox="0 0 18 18" fill="none" xmlns="http://www.w3.org/2000/svg">
<path d="M3.10006 12.5745L3.09772 12.7296L3.18364 12.8589C4.43336 14.7383 6.57556 15.98 9 15.98C11.4244 15.98 13.5666 14.7383 14.8164 12.8589L14.9023 12.7296L14.8999 12.5745C14.8905 11.9467 14.5672 11.4294 14.1383 11.0281C13.7114 10.6288 13.1462 10.3103 12.5543 10.063C11.3726 9.56926 9.96392 9.31 9 9.31C8.03174 9.31 6.62303 9.5692 5.44219 10.0631C4.85075 10.3105 4.28634 10.629 3.86011 11.0285C3.43178 11.4299 3.10951 11.9471 3.10006 12.5745ZM0.5 9C0.5 4.30814 4.30814 0.5 9 0.5C13.6919 0.5 17.5 4.30814 17.5 9C17.5 13.6919 13.6919 17.5 9 17.5C4.30814 17.5 0.5 13.6919 0.5 9ZM12.2 5.4C12.2 3.62986 10.7701 2.2 9 2.2C7.22986 2.2 5.8 3.62986 5.8 5.4C5.8 7.17014 7.22986 8.6 9 8.6C10.7701 8.6 12.2 7.17014 12.2 5.4Z" stroke="white"/>
</svg>
