<svg width="15" height="26" viewBox="0 0 15 26" fill="none" xmlns="http://www.w3.org/2000/svg">
<path fill-rule="evenodd" clip-rule="evenodd" d="M1.27543 25.1024C1.18813 25.0154 1.11886 24.9119 1.0716 24.798C1.02433 24.6841 1.00001 24.562 1.00001 24.4387C1.00001 24.3154 1.02433 24.1933 1.0716 24.0794C1.11886 23.9655 1.18813 23.862 1.27543 23.7749L11.8636 13.1887L1.27543 2.60244C1.09939 2.4264 1.0005 2.18765 1.0005 1.93869C1.0005 1.68974 1.09939 1.45098 1.27543 1.27494C1.45147 1.0989 1.69023 1.00001 1.93918 1.00001C2.18814 1.00001 2.4269 1.0989 2.60293 1.27494L13.8529 12.5249C13.9402 12.612 14.0095 12.7155 14.0568 12.8294C14.104 12.9433 14.1284 13.0654 14.1284 13.1887C14.1284 13.312 14.104 13.4341 14.0568 13.548C14.0095 13.6619 13.9402 13.7654 13.8529 13.8524L2.60293 25.1024C2.51585 25.1897 2.41239 25.259 2.29849 25.3063C2.1846 25.3535 2.0625 25.3779 1.93918 25.3779C1.81587 25.3779 1.69377 25.3535 1.57987 25.3063C1.46597 25.259 1.36252 25.1897 1.27543 25.1024Z" fill="#333333" fill-opacity="0.5"/>
<path d="M1.09888 25.2794C0.98829 25.1691 0.900553 25.0381 0.840688 24.8938C0.780823 24.7496 0.750007 24.5949 0.750007 24.4387C0.750007 24.2825 0.780823 24.1278 0.840688 23.9836C0.900516 23.8394 0.98818 23.7084 1.09867 23.5982L1.09888 25.2794ZM1.09888 25.2794L1.27543 25.1024M1.09888 25.2794L1.27543 25.1024M1.27543 25.1024L1.09843 25.279C1.20874 25.3896 1.33978 25.4773 1.48405 25.5372C1.62832 25.5971 1.78298 25.6279 1.93918 25.6279C2.09538 25.6279 2.25004 25.5971 2.39431 25.5372C2.53852 25.4773 2.66951 25.3897 2.77978 25.2791C2.77983 25.2791 2.77988 25.279 2.77993 25.279L14.0295 14.0294C14.0295 14.0294 14.0296 14.0293 14.0296 14.0293L1.27543 25.1024ZM11.51 13.1887L1.09888 23.5979L13.8529 12.5249L14.0297 12.3482L14.0296 12.3481C14.0296 12.348 14.0295 12.348 14.0295 12.3479L2.77971 1.09817C2.55679 0.875242 2.25444 0.750008 1.93918 0.750008C1.62392 0.750008 1.32158 0.875242 1.09865 1.09817C0.875733 1.32109 0.750499 1.62343 0.750499 1.93869C0.750499 2.25395 0.875733 2.5563 1.09865 2.77922L1.09867 2.77923L11.51 13.1887Z" stroke="#333333" stroke-opacity="0.5" stroke-width="0.5"/>
</svg>
